<?xml version="1.0" standalone="no"?><!DOCTYPE svg PUBLIC "-//W3C//DTD SVG 1.1//EN" "http://www.w3.org/Graphics/SVG/1.1/DTD/svg11.dtd"><svg t="1558579985605" class="icon" style="" viewBox="0 0 1024 1024" version="1.1" xmlns="http://www.w3.org/2000/svg" p-id="1315" xmlns:xlink="http://www.w3.org/1999/xlink" width="200" height="200"><defs><style type="text/css"></style></defs><path d="M512 265.4c-76-76-199.2-76-275.2 0s-76 199.2 0 275.2L512 815.6l275.2-275.2c76-76 76-199.2 0-275.2-76-75.8-199.2-75.8-275.2 0.2z" fill="#F05458" p-id="1316"></path><path d="M787.2 265.4c-45.2-45.2-107.2-63.6-166-54.8 40 5.8 78.4 24.2 109 54.8 76 76 76 199.2 0 275.2L483.6 787.2l28.4 28.4 275.2-275.2c76-75.8 76-199 0-275z" fill="#D9383C" p-id="1317"></path><path d="M512 758.6L293.8 540.4c-76-76-76-199.2 0-275.2 30.8-30.8 69.2-49 109-54.8-58.8-8.6-120.8 9.6-166 54.8-76 76-76 199.2 0 275.2L512 815.6v-57z" fill="#F0787B" p-id="1318"></path><path d="M512 825.4c-2.4 0-5-1-6.8-2.8L230 547.4c-79.6-79.6-79.6-209.2 0-289 38.6-38.6 89.8-59.8 144.4-59.8 51.4 0 99.8 18.8 137.6 53.2 80-73 204.6-70.8 282 6.6 79.6 79.6 79.6 209.2 0 289L518.8 822.6c-1.8 1.8-4.4 2.8-6.8 2.8zM374.4 218c-49.4 0-95.8 19.2-130.8 54.2-72 72-72 189.4 0 261.4L512 802l268.4-268.4c72-72 72-189.4 0-261.4-72-72-189.4-72-261.4 0-3.8 3.8-10 3.8-13.8 0-35-35-81.4-54.2-130.8-54.2z" fill="#402943" p-id="1319"></path><path d="M414.8 416.8c-5.4 0-9.8-4.4-9.8-9.8V368c0-5.4 4.4-9.8 9.8-9.8s9.8 4.4 9.8 9.8v39c-0.2 5.4-4.6 9.8-9.8 9.8z" fill="#FFFFFF" p-id="1320"></path><path d="M434.2 397.4h-39c-5.4 0-9.8-4.4-9.8-9.8s4.4-9.8 9.8-9.8h39c5.4 0 9.8 4.4 9.8 9.8-0.2 5.4-4.4 9.8-9.8 9.8zM336.8 358.4c-5.4 0-9.8-4.4-9.8-9.8v-39c0-5.4 4.4-9.8 9.8-9.8s9.8 4.4 9.8 9.8v39c0 5.4-4.4 9.8-9.8 9.8z" fill="#FFFFFF" p-id="1321"></path><path d="M356.4 339h-39c-5.4 0-9.8-4.4-9.8-9.8s4.4-9.8 9.8-9.8h39c5.4 0 9.8 4.4 9.8 9.8-0.2 5.4-4.4 9.8-9.8 9.8z" fill="#FFFFFF" p-id="1322"></path><path d="M356.4 475.2c-5.4 0-9.8-4.4-9.8-9.8v-39c0-5.4 4.4-9.8 9.8-9.8s9.8 4.4 9.8 9.8v39c-0.2 5.4-4.4 9.8-9.8 9.8z" fill="#FFFFFF" p-id="1323"></path><path d="M375.8 455.8h-39c-5.4 0-9.8-4.4-9.8-9.8s4.4-9.8 9.8-9.8h39c5.4 0 9.8 4.4 9.8 9.8s-4.4 9.8-9.8 9.8z" fill="#FFFFFF" p-id="1324"></path><path d="M496.4 725l-65.2-172-23.8 48.6H161.8v-38.8h221.2l52.6-107.6 53.2 139.8 62.2-248.8 54 216.6h257.2v38.8H574.6l-23.6-94.8z" fill="#4AB5AC" p-id="1325"></path><path d="M823.4 562.8h39v39h-39z" fill="#3F9991" p-id="1326"></path><path d="M161.8 562.8h39v39H161.8z" fill="#5BDED3" p-id="1327"></path><path d="M496.4 734.8c-4 0-7.6-2.4-9-6.2L430 577.4l-13.8 28.4c-1.6 3.4-5 5.4-8.8 5.4H161.8c-5.4 0-9.8-4.4-9.8-9.8v-39c0-5.4 4.4-9.8 9.8-9.8h215.2l50-102c1.8-3.4 5.4-5.6 9.2-5.4 3.8 0.2 7.2 2.6 8.6 6.2l42 110.8L541.4 344c1-4.4 5-7.4 9.4-7.4s8.4 3 9.4 7.4l52.2 209H862c5.4 0 9.8 4.4 9.8 9.8v39c0 5.4-4.4 9.8-9.8 9.8H574.6c-4.4 0-8.4-3-9.4-7.4l-14.2-57.2-45.2 180.4c-1 4.2-4.6 7.2-8.8 7.4-0.2-0.2-0.4 0-0.6 0z m-65.2-191.6h0.4c3.8 0.2 7.2 2.6 8.6 6.2l54.2 143 47-188.2c1-4.4 5-7.4 9.4-7.4s8.4 3 9.4 7.4l21.8 87.6h270.2v-19.4H605c-4.4 0-8.4-3-9.4-7.4l-44.6-178.6-52.8 211c-1 4.2-4.6 7.2-8.8 7.4-4.2 0.2-8.2-2.2-9.6-6.2l-45-118.8-42.8 87.4c-1.6 3.4-5 5.4-8.8 5.4H171.4v19.4h229.8l21.2-43.2c1.6-3.4 5-5.6 8.8-5.6z" fill="#402943" p-id="1328"></path></svg>